<svg
                                  xmlns="http://www.w3.org/2000/svg"
                                  width="16"
                                  height="16"
                                  viewBox="0 0 16 16"
                                  fill="none"
                                  stroke="currentColor"
                                >
                                  <path
                                    d="M8.00065 2.99998V1.33331M8.00065 2.99998C7.08018 2.99998 6.33398 3.74617 6.33398 4.66665C6.33398 5.58712 7.08018 6.33331 8.00065 6.33331M8.00065 2.99998C8.92113 2.99998 9.66732 3.74617 9.66732 4.66665C9.66732 5.58712 8.92113 6.33331 8.00065 6.33331M3.00065 13C3.92113 13 4.66732 12.2538 4.66732 11.3333C4.66732 10.4128 3.92113 9.66665 3.00065 9.66665M3.00065 13C2.08018 13 1.33398 12.2538 1.33398 11.3333C1.33398 10.4128 2.08018 9.66665 3.00065 9.66665M3.00065 13V14.6666M3.00065 9.66665V1.33331M8.00065 6.33331V14.6666M13.0007 13C13.9211 13 14.6673 12.2538 14.6673 11.3333C14.6673 10.4128 13.9211 9.66665 13.0007 9.66665M13.0007 13C12.0802 13 11.334 12.2538 11.334 11.3333C11.334 10.4128 12.0802 9.66665 13.0007 9.66665M13.0007 13V14.6666M13.0007 9.66665V1.33331"
                                    stroke-width="1.67"
                                    stroke-linecap="round"
                                    stroke-linejoin="round"
                                  />
                                </svg>