<svg
                                  xmlns="http://www.w3.org/2000/svg"
                                  width="19"
                                  height="19"
                                  viewBox="0 0 19 19"
                                  fill="none"
                                  stroke="currentColor"
                                >
                                  <path
                                    d="M1.39735 15.0964C1.43564 14.7518 1.45478 14.5795 1.50691 14.4185C1.55316 14.2756 1.61851 14.1396 1.70118 14.0142C1.79436 13.8729 1.91694 13.7504 2.16209 13.5052L13.1673 2.49999C14.0878 1.57951 15.5802 1.57951 16.5007 2.49999C17.4211 3.42046 17.4211 4.91285 16.5007 5.83332L5.49542 16.8386C5.25027 17.0837 5.1277 17.2063 4.98639 17.2995C4.86102 17.3821 4.72506 17.4475 4.58219 17.4937C4.42115 17.5459 4.24887 17.565 3.90429 17.6033L1.08398 17.9167L1.39735 15.0964Z"
                                    stroke-width="1.66667"
                                    stroke-linecap="round"
                                    stroke-linejoin="round"
                                  />
                                </svg>